<mxfile host="app.diagrams.net" modified="2021-06-04T15:13:20.536Z" agent="5.0 (Windows NT 10.0; Win64; x64) AppleWebKit/537.36 (KHTML, like Gecko) Chrome/90.0.4430.212 Safari/537.36" etag="dcXqXTxwXgyaISKXWhE9" version="14.7.0" type="github">
  <diagram id="C5RBs43oDa-KdzZeNtuy" name="Page-1">
    <mxGraphModel dx="866" dy="465" grid="1" gridSize="10" guides="1" tooltips="1" connect="1" arrows="1" fold="1" page="1" pageScale="1" pageWidth="827" pageHeight="1169" math="0" shadow="0">
      <root>
        <mxCell id="WIyWlLk6GJQsqaUBKTNV-0" />
        <mxCell id="WIyWlLk6GJQsqaUBKTNV-1" parent="WIyWlLk6GJQsqaUBKTNV-0" />
        <mxCell id="uIBKdgSqVNEVXsuV5pHZ-1" value="" style="edgeStyle=orthogonalEdgeStyle;rounded=0;orthogonalLoop=1;jettySize=auto;html=1;" edge="1" parent="WIyWlLk6GJQsqaUBKTNV-1" source="WIyWlLk6GJQsqaUBKTNV-3" target="uIBKdgSqVNEVXsuV5pHZ-0">
          <mxGeometry relative="1" as="geometry" />
        </mxCell>
        <mxCell id="WIyWlLk6GJQsqaUBKTNV-3" value="START" style="rounded=1;whiteSpace=wrap;html=1;fontSize=12;glass=0;strokeWidth=1;shadow=0;" parent="WIyWlLk6GJQsqaUBKTNV-1" vertex="1">
          <mxGeometry x="160" y="80" width="120" height="40" as="geometry" />
        </mxCell>
        <mxCell id="uIBKdgSqVNEVXsuV5pHZ-3" value="" style="edgeStyle=orthogonalEdgeStyle;rounded=0;orthogonalLoop=1;jettySize=auto;html=1;" edge="1" parent="WIyWlLk6GJQsqaUBKTNV-1" source="uIBKdgSqVNEVXsuV5pHZ-0" target="uIBKdgSqVNEVXsuV5pHZ-2">
          <mxGeometry relative="1" as="geometry" />
        </mxCell>
        <mxCell id="uIBKdgSqVNEVXsuV5pHZ-5" style="edgeStyle=orthogonalEdgeStyle;rounded=0;orthogonalLoop=1;jettySize=auto;html=1;" edge="1" parent="WIyWlLk6GJQsqaUBKTNV-1" source="uIBKdgSqVNEVXsuV5pHZ-0">
          <mxGeometry relative="1" as="geometry">
            <mxPoint x="90" y="410" as="targetPoint" />
          </mxGeometry>
        </mxCell>
        <mxCell id="uIBKdgSqVNEVXsuV5pHZ-0" value="Is &lt;br&gt;(milliseconds - lastTime) &lt;br&gt;&amp;gt; 200" style="rhombus;whiteSpace=wrap;html=1;" vertex="1" parent="WIyWlLk6GJQsqaUBKTNV-1">
          <mxGeometry x="140" y="150" width="160" height="110" as="geometry" />
        </mxCell>
        <mxCell id="uIBKdgSqVNEVXsuV5pHZ-6" style="edgeStyle=orthogonalEdgeStyle;rounded=0;orthogonalLoop=1;jettySize=auto;html=1;" edge="1" parent="WIyWlLk6GJQsqaUBKTNV-1" source="uIBKdgSqVNEVXsuV5pHZ-2">
          <mxGeometry relative="1" as="geometry">
            <mxPoint x="220" y="440" as="targetPoint" />
          </mxGeometry>
        </mxCell>
        <mxCell id="uIBKdgSqVNEVXsuV5pHZ-2" value="toggle TIMSK1&lt;br&gt;lastTime = milliseconds" style="whiteSpace=wrap;html=1;" vertex="1" parent="WIyWlLk6GJQsqaUBKTNV-1">
          <mxGeometry x="150" y="300" width="140" height="60" as="geometry" />
        </mxCell>
        <mxCell id="uIBKdgSqVNEVXsuV5pHZ-4" value="YES" style="text;html=1;strokeColor=none;fillColor=none;align=center;verticalAlign=middle;whiteSpace=wrap;rounded=0;" vertex="1" parent="WIyWlLk6GJQsqaUBKTNV-1">
          <mxGeometry x="230" y="270" width="40" height="20" as="geometry" />
        </mxCell>
        <mxCell id="uIBKdgSqVNEVXsuV5pHZ-7" value="" style="endArrow=none;html=1;" edge="1" parent="WIyWlLk6GJQsqaUBKTNV-1">
          <mxGeometry width="50" height="50" relative="1" as="geometry">
            <mxPoint x="90" y="410" as="sourcePoint" />
            <mxPoint x="220" y="410" as="targetPoint" />
          </mxGeometry>
        </mxCell>
        <mxCell id="uIBKdgSqVNEVXsuV5pHZ-8" value="END" style="rounded=1;whiteSpace=wrap;html=1;" vertex="1" parent="WIyWlLk6GJQsqaUBKTNV-1">
          <mxGeometry x="175" y="440" width="90" height="30" as="geometry" />
        </mxCell>
        <mxCell id="uIBKdgSqVNEVXsuV5pHZ-9" value="NO" style="text;html=1;strokeColor=none;fillColor=none;align=center;verticalAlign=middle;whiteSpace=wrap;rounded=0;" vertex="1" parent="WIyWlLk6GJQsqaUBKTNV-1">
          <mxGeometry x="90" y="180" width="40" height="20" as="geometry" />
        </mxCell>
      </root>
    </mxGraphModel>
  </diagram>
</mxfile>
